<svg xmlns="http://www.w3.org/2000/svg" xmlns:xlink="http://www.w3.org/1999/xlink" style="width: 100%; height: 100%" width="24"  height="24" ><defs><svg xmlns="http://www.w3.org/2000/svg" xlink="http://www.w3.org/1999/xlink" viewBox="0 0 24 24" id="svg345331473"><path d="M 12 2.25 C 6.615 2.25 2.25 6.615 2.25 12 C 2.25 17.385 6.615 21.75 12 21.75 C 17.385 21.75 21.75 17.385 21.75 12 C 21.744 6.618 17.382 2.256 12 2.25 Z M 6.945 18.516 C 8.048 16.791 9.953 15.748 12 15.748 C 14.047 15.748 15.952 16.791 17.055 18.516 C 14.082 20.828 9.918 20.828 6.945 18.516 Z M 9 11.25 C 9 9.593 10.343 8.25 12 8.25 C 13.657 8.25 15 9.593 15 11.25 C 15 12.907 13.657 14.25 12 14.25 C 10.343 14.25 9 12.907 9 11.25 Z M 18.165 17.476 C 17.329 16.264 16.152 15.326 14.784 14.781 C 16.291 13.594 16.88 11.584 16.252 9.772 C 15.624 7.96 13.917 6.745 12 6.745 C 10.083 6.745 8.376 7.96 7.748 9.772 C 7.12 11.584 7.709 13.594 9.216 14.781 C 7.848 15.326 6.671 16.264 5.835 17.476 C 2.89 14.165 3.088 9.119 6.281 6.047 C 9.475 2.976 14.525 2.976 17.719 6.047 C 20.912 9.119 21.11 14.165 18.165 17.476 Z" fill="#FFFFFF"></path></svg></defs><use href="#svg345331473"></use></svg>