<svg width="1512" height="982" viewBox="0 0 1512 982" fill="none" xmlns="http://www.w3.org/2000/svg">
<g clip-path="url(#clip0_2_9)">
<rect width="1512" height="982" fill="#1B1B1B"/>
<g filter="url(#filter0_f_2_9)">
<path fill-rule="evenodd" clip-rule="evenodd" d="M1219.26 573.912C1325.81 573.912 1350.5 702.894 1350.5 806.5C1350.5 893.12 1308.34 987.912 1219.26 987.912C1102.47 987.912 985.5 920.078 985.5 806.5C985.5 679.491 1088.66 573.912 1219.26 573.912Z" fill="#333E47"/>
<path fill-rule="evenodd" clip-rule="evenodd" d="M1219.26 573.912C1325.81 573.912 1350.5 702.894 1350.5 806.5C1350.5 893.12 1308.34 987.912 1219.26 987.912C1102.47 987.912 985.5 920.078 985.5 806.5C985.5 679.491 1088.66 573.912 1219.26 573.912Z" stroke="black"/>
</g>
<g filter="url(#filter1_f_2_9)">
<path fill-rule="evenodd" clip-rule="evenodd" d="M396.549 -158.078C482.849 -156.095 577.327 -168.932 637.303 -106.848C702.546 -39.3116 732.559 66.6427 697.98 153.947C666.698 232.926 563.884 236.85 486.926 272.817C412.031 307.818 343.78 384.412 266.251 355.713C184.975 325.628 160.9 227.779 138.841 143.968C115.433 55.034 81.8122 -48.2869 141.502 -118.246C200.261 -187.114 306.044 -160.159 396.549 -158.078Z" fill="#8D4848" fill-opacity="0.3"/>
<path fill-rule="evenodd" clip-rule="evenodd" d="M396.549 -158.078C482.849 -156.095 577.327 -168.932 637.303 -106.848C702.546 -39.3116 732.559 66.6427 697.98 153.947C666.698 232.926 563.884 236.85 486.926 272.817C412.031 307.818 343.78 384.412 266.251 355.713C184.975 325.628 160.9 227.779 138.841 143.968C115.433 55.034 81.8122 -48.2869 141.502 -118.246C200.261 -187.114 306.044 -160.159 396.549 -158.078Z" stroke="black"/>
</g>
<g filter="url(#filter2_f_2_9)">
<path fill-rule="evenodd" clip-rule="evenodd" d="M1253.1 23.0479C1350.59 17.2665 1475.03 33.4364 1517.18 121.466C1558.93 208.665 1455.89 293.207 1426.56 385.322C1411.7 432.004 1419.48 482.893 1389.7 521.808C1355.24 566.84 1309.83 612.649 1253.1 611.993C1196.65 611.34 1154.64 562.924 1119.62 518.683C1089.28 480.349 1086.65 432.45 1073.7 385.322C1051.61 304.9 981.592 225.78 1018.61 151.031C1059.67 68.1141 1160.67 28.5287 1253.1 23.0479Z" fill="#505A41" fill-opacity="0.5"/>
</g>
</g>
<defs>
<filter id="filter0_f_2_9" x="585" y="173.412" width="1166" height="1215" filterUnits="userSpaceOnUse" color-interpolation-filters="sRGB">
<feFlood flood-opacity="0" result="BackgroundImageFix"/>
<feBlend mode="normal" in="SourceGraphic" in2="BackgroundImageFix" result="shape"/>
<feGaussianBlur stdDeviation="200" result="effect1_foregroundBlur_2_9"/>
</filter>
<filter id="filter1_f_2_9" x="-292.5" y="-565.5" width="1405.49" height="1328.02" filterUnits="userSpaceOnUse" color-interpolation-filters="sRGB">
<feFlood flood-opacity="0" result="BackgroundImageFix"/>
<feBlend mode="normal" in="SourceGraphic" in2="BackgroundImageFix" result="shape"/>
<feGaussianBlur stdDeviation="200" result="effect1_foregroundBlur_2_9"/>
</filter>
<filter id="filter2_f_2_9" x="608" y="-378" width="1319" height="1390" filterUnits="userSpaceOnUse" color-interpolation-filters="sRGB">
<feFlood flood-opacity="0" result="BackgroundImageFix"/>
<feBlend mode="normal" in="SourceGraphic" in2="BackgroundImageFix" result="shape"/>
<feGaussianBlur stdDeviation="200" result="effect1_foregroundBlur_2_9"/>
</filter>
<clipPath id="clip0_2_9">
<rect width="1512" height="982" fill="white"/>
</clipPath>
</defs>
</svg>
