<svg xmlns="http://www.w3.org/2000/svg" xmlns:xlink="http://www.w3.org/1999/xlink" style="width: 100%; height: 100%" width="24"  height="24" ><defs><svg xmlns="http://www.w3.org/2000/svg" xlink="http://www.w3.org/1999/xlink" viewBox="0 0 24 24" id="svg2698404685"><path d="M 20.515 9.728 L 13.015 2.652 C 13.012 2.649 13.008 2.646 13.005 2.642 C 12.433 2.122 11.559 2.122 10.987 2.642 L 10.976 2.652 L 3.485 9.728 C 3.176 10.013 3 10.413 3 10.833 L 3 19.5 C 3 20.328 3.672 21 4.5 21 L 9 21 C 9.828 21 10.5 20.328 10.5 19.5 L 10.5 15 L 13.5 15 L 13.5 19.5 C 13.5 20.328 14.172 21 15 21 L 19.5 21 C 20.328 21 21 20.328 21 19.5 L 21 10.833 C 21 10.413 20.824 10.013 20.515 9.728 Z M 19.5 19.5 L 15 19.5 L 15 15 C 15 14.172 14.328 13.5 13.5 13.5 L 10.5 13.5 C 9.672 13.5 9 14.172 9 15 L 9 19.5 L 4.5 19.5 L 4.5 10.833 L 4.51 10.823 L 12 3.75 L 19.491 10.822 L 19.501 10.831 Z" fill="#FFFFFF"></path></svg></defs><use href="#svg2698404685"></use></svg>