<svg xmlns="http://www.w3.org/2000/svg" xmlns:xlink="http://www.w3.org/1999/xlink" style="width: 100%; height: 100%" width="24"  height="24" ><defs><svg xmlns="http://www.w3.org/2000/svg" xlink="http://www.w3.org/1999/xlink" viewBox="0 0 24 24" id="svg3694854182"><path d="M 21.75 3 C 21.75 2.586 21.414 2.25 21 2.25 C 16.867 2.25 12.627 6.91 10.272 9.997 C 8.567 9.474 6.714 9.792 5.28 10.852 C 3.846 11.913 3 13.591 3 15.375 C 3 18.27 1.168 19.568 1.081 19.628 C 0.808 19.813 0.687 20.154 0.783 20.469 C 0.88 20.784 1.17 21 1.5 21 L 8.625 21 C 10.409 21 12.087 20.154 13.148 18.72 C 14.208 17.286 14.526 15.433 14.003 13.728 C 17.091 11.373 21.75 7.133 21.75 3 Z M 8.625 19.5 L 3.247 19.5 C 3.879 18.601 4.5 17.242 4.5 15.375 C 4.5 13.097 6.347 11.25 8.625 11.25 C 10.903 11.25 12.75 13.097 12.75 15.375 C 12.75 17.653 10.903 19.5 8.625 19.5 Z M 11.664 10.645 C 11.986 10.229 12.301 9.837 12.61 9.469 C 13.368 9.98 14.02 10.632 14.531 11.39 C 14.162 11.698 13.77 12.014 13.355 12.336 C 12.918 11.659 12.341 11.082 11.664 10.645 Z M 15.667 10.394 C 15.101 9.595 14.404 8.898 13.605 8.332 C 16.584 5.094 18.832 4.113 20.158 3.84 C 19.891 5.167 18.905 7.415 15.667 10.394 Z" fill="#FFFFFF"></path></svg></defs><use href="#svg3694854182"></use></svg>