<svg xmlns="http://www.w3.org/2000/svg" xmlns:xlink="http://www.w3.org/1999/xlink" style="width: 100%; height: 100%" width="24"  height="24" ><defs><svg xmlns="http://www.w3.org/2000/svg" xmlns:xlink="http://www.w3.org/1999/xlink" viewBox="0 0 24 24" id="svg768806026"><path d="M 23.193 6.463 C 23.077 6.183 22.803 6 22.5 6 L 19.647 6 C 18.836 4.62 17.36 3.766 15.759 3.75 C 14.575 3.734 13.434 4.198 12.595 5.034 C 11.732 5.881 11.247 7.041 11.25 8.25 L 11.25 8.821 C 7.476 7.825 4.388 4.755 4.356 4.722 C 4.15 4.515 3.843 4.446 3.569 4.545 C 3.294 4.644 3.102 4.893 3.076 5.183 C 2.672 9.664 3.973 12.662 5.138 14.388 C 5.707 15.241 6.398 16.006 7.19 16.657 C 5.762 18.3 3.514 19.163 3.489 19.173 C 3.275 19.253 3.109 19.427 3.039 19.645 C 2.968 19.863 3.001 20.101 3.128 20.291 C 3.199 20.396 3.48 20.765 4.167 21.109 C 5.017 21.534 6.139 21.75 7.5 21.75 C 14.125 21.75 19.661 16.648 20.227 10.084 L 23.031 7.281 C 23.245 7.066 23.309 6.743 23.193 6.463 Z M 18.974 9.22 C 18.845 9.349 18.768 9.52 18.757 9.702 C 18.375 15.617 13.433 20.25 7.5 20.25 C 6.51 20.25 5.813 20.119 5.323 19.961 C 6.402 19.375 7.907 18.367 8.874 16.916 C 8.989 16.744 9.027 16.531 8.98 16.33 C 8.933 16.128 8.804 15.955 8.625 15.851 C 8.581 15.826 4.508 13.382 4.5 6.851 C 6 8.07 8.742 9.961 11.875 10.488 C 12.093 10.524 12.315 10.464 12.484 10.322 C 12.652 10.179 12.749 9.97 12.75 9.75 L 12.75 8.25 C 12.748 7.442 13.073 6.667 13.65 6.101 C 14.203 5.547 14.957 5.24 15.741 5.25 C 16.928 5.265 18.037 5.989 18.501 7.051 C 18.62 7.324 18.89 7.5 19.188 7.5 L 20.688 7.5 Z" fill="#FFFFFF"></path></svg></defs><use href="#svg768806026"></use></svg>